<mxfile host="app.diagrams.net" modified="2024-03-29T01:39:13.611Z" agent="Mozilla/5.0 (X11; Linux x86_64) AppleWebKit/537.36 (KHTML, like Gecko) Chrome/121.0.0.0 Safari/537.36" etag="_V1sr7BPOYL4EI0TiHJJ" version="24.0.7" type="github">
  <diagram id="C5RBs43oDa-KdzZeNtuy" name="Page-1">
    <mxGraphModel dx="778" dy="1622" grid="1" gridSize="10" guides="1" tooltips="1" connect="1" arrows="1" fold="1" page="1" pageScale="1" pageWidth="827" pageHeight="1169" math="0" shadow="0">
      <root>
        <mxCell id="WIyWlLk6GJQsqaUBKTNV-0" />
        <mxCell id="WIyWlLk6GJQsqaUBKTNV-1" parent="WIyWlLk6GJQsqaUBKTNV-0" />
        <mxCell id="WIyWlLk6GJQsqaUBKTNV-3" value="" style="rounded=1;whiteSpace=wrap;html=1;fontSize=12;glass=0;strokeWidth=6;shadow=0;" parent="WIyWlLk6GJQsqaUBKTNV-1" vertex="1">
          <mxGeometry x="94" y="-300" width="320" height="200" as="geometry" />
        </mxCell>
        <mxCell id="gr5bcSjQBXBdmszoCTGf-0" value="x" style="text;html=1;align=center;verticalAlign=middle;whiteSpace=wrap;rounded=0;fontStyle=2;fontFamily=Times New Roman;fontSize=41;" vertex="1" parent="WIyWlLk6GJQsqaUBKTNV-1">
          <mxGeometry x="495" y="361" width="60" height="30" as="geometry" />
        </mxCell>
        <mxCell id="gr5bcSjQBXBdmszoCTGf-1" value="t" style="text;html=1;align=center;verticalAlign=middle;whiteSpace=wrap;rounded=0;fontStyle=2;fontFamily=Times New Roman;fontSize=20;" vertex="1" parent="WIyWlLk6GJQsqaUBKTNV-1">
          <mxGeometry x="505" y="381" width="60" height="30" as="geometry" />
        </mxCell>
        <mxCell id="gr5bcSjQBXBdmszoCTGf-15" value="h" style="text;html=1;align=center;verticalAlign=middle;whiteSpace=wrap;rounded=0;fontStyle=2;fontFamily=Times New Roman;fontSize=41;" vertex="1" parent="WIyWlLk6GJQsqaUBKTNV-1">
          <mxGeometry x="100" y="261" width="60" height="30" as="geometry" />
        </mxCell>
        <mxCell id="gr5bcSjQBXBdmszoCTGf-16" value="t-1" style="text;html=1;align=center;verticalAlign=middle;whiteSpace=wrap;rounded=0;fontStyle=2;fontFamily=Times New Roman;fontSize=20;" vertex="1" parent="WIyWlLk6GJQsqaUBKTNV-1">
          <mxGeometry x="123" y="276" width="60" height="30" as="geometry" />
        </mxCell>
        <mxCell id="gr5bcSjQBXBdmszoCTGf-17" value="h" style="text;html=1;align=center;verticalAlign=middle;whiteSpace=wrap;rounded=0;fontStyle=2;fontFamily=Times New Roman;fontSize=41;" vertex="1" parent="WIyWlLk6GJQsqaUBKTNV-1">
          <mxGeometry x="587" y="252" width="60" height="30" as="geometry" />
        </mxCell>
        <mxCell id="gr5bcSjQBXBdmszoCTGf-18" value="t" style="text;html=1;align=center;verticalAlign=middle;whiteSpace=wrap;rounded=0;fontStyle=2;fontFamily=Times New Roman;fontSize=20;" vertex="1" parent="WIyWlLk6GJQsqaUBKTNV-1">
          <mxGeometry x="600" y="270" width="60" height="30" as="geometry" />
        </mxCell>
        <mxCell id="gr5bcSjQBXBdmszoCTGf-76" style="edgeStyle=orthogonalEdgeStyle;rounded=0;orthogonalLoop=1;jettySize=auto;html=1;exitX=1;exitY=0;exitDx=0;exitDy=0;entryX=0;entryY=0.5;entryDx=0;entryDy=0;strokeWidth=4;" edge="1" parent="WIyWlLk6GJQsqaUBKTNV-1" target="gr5bcSjQBXBdmszoCTGf-72">
          <mxGeometry relative="1" as="geometry">
            <mxPoint x="241" y="161" as="sourcePoint" />
            <Array as="points">
              <mxPoint x="241" y="160" />
            </Array>
          </mxGeometry>
        </mxCell>
        <mxCell id="gr5bcSjQBXBdmszoCTGf-41" value="W" style="text;html=1;align=center;verticalAlign=middle;whiteSpace=wrap;rounded=0;fontStyle=2;fontFamily=Times New Roman;fontSize=41;" vertex="1" parent="WIyWlLk6GJQsqaUBKTNV-1">
          <mxGeometry x="185" y="266" width="60" height="30" as="geometry" />
        </mxCell>
        <mxCell id="gr5bcSjQBXBdmszoCTGf-42" value="h" style="text;html=1;align=center;verticalAlign=middle;whiteSpace=wrap;rounded=0;fontStyle=2;fontFamily=Times New Roman;fontSize=20;" vertex="1" parent="WIyWlLk6GJQsqaUBKTNV-1">
          <mxGeometry x="195" y="286" width="60" height="30" as="geometry" />
        </mxCell>
        <mxCell id="gr5bcSjQBXBdmszoCTGf-191" style="edgeStyle=orthogonalEdgeStyle;rounded=0;orthogonalLoop=1;jettySize=auto;html=1;exitX=1;exitY=0.5;exitDx=0;exitDy=0;entryX=0;entryY=0.5;entryDx=0;entryDy=0;endArrow=none;endFill=0;" edge="1" parent="WIyWlLk6GJQsqaUBKTNV-1" source="gr5bcSjQBXBdmszoCTGf-49" target="gr5bcSjQBXBdmszoCTGf-187">
          <mxGeometry relative="1" as="geometry" />
        </mxCell>
        <mxCell id="gr5bcSjQBXBdmszoCTGf-49" value="" style="whiteSpace=wrap;html=1;aspect=fixed;strokeWidth=4;" vertex="1" parent="WIyWlLk6GJQsqaUBKTNV-1">
          <mxGeometry x="121" y="82" width="40" height="40" as="geometry" />
        </mxCell>
        <mxCell id="gr5bcSjQBXBdmszoCTGf-192" style="edgeStyle=orthogonalEdgeStyle;rounded=0;orthogonalLoop=1;jettySize=auto;html=1;exitX=1;exitY=0.5;exitDx=0;exitDy=0;entryX=0;entryY=0.5;entryDx=0;entryDy=0;endArrow=none;endFill=0;" edge="1" parent="WIyWlLk6GJQsqaUBKTNV-1" source="gr5bcSjQBXBdmszoCTGf-50" target="gr5bcSjQBXBdmszoCTGf-188">
          <mxGeometry relative="1" as="geometry" />
        </mxCell>
        <mxCell id="gr5bcSjQBXBdmszoCTGf-50" value="" style="whiteSpace=wrap;html=1;aspect=fixed;strokeWidth=4;" vertex="1" parent="WIyWlLk6GJQsqaUBKTNV-1">
          <mxGeometry x="121" y="122" width="40" height="40" as="geometry" />
        </mxCell>
        <mxCell id="gr5bcSjQBXBdmszoCTGf-193" style="edgeStyle=orthogonalEdgeStyle;rounded=0;orthogonalLoop=1;jettySize=auto;html=1;exitX=1;exitY=0.5;exitDx=0;exitDy=0;entryX=0;entryY=0.5;entryDx=0;entryDy=0;endArrow=none;endFill=0;" edge="1" parent="WIyWlLk6GJQsqaUBKTNV-1" source="gr5bcSjQBXBdmszoCTGf-51" target="gr5bcSjQBXBdmszoCTGf-189">
          <mxGeometry relative="1" as="geometry">
            <mxPoint x="180" y="180" as="targetPoint" />
          </mxGeometry>
        </mxCell>
        <mxCell id="gr5bcSjQBXBdmszoCTGf-51" value="" style="whiteSpace=wrap;html=1;aspect=fixed;strokeWidth=4;" vertex="1" parent="WIyWlLk6GJQsqaUBKTNV-1">
          <mxGeometry x="121" y="160" width="40" height="40" as="geometry" />
        </mxCell>
        <mxCell id="gr5bcSjQBXBdmszoCTGf-194" style="edgeStyle=orthogonalEdgeStyle;rounded=0;orthogonalLoop=1;jettySize=auto;html=1;exitX=1;exitY=0.5;exitDx=0;exitDy=0;entryX=0;entryY=0.5;entryDx=0;entryDy=0;endArrow=none;endFill=0;" edge="1" parent="WIyWlLk6GJQsqaUBKTNV-1" source="gr5bcSjQBXBdmszoCTGf-52" target="gr5bcSjQBXBdmszoCTGf-190">
          <mxGeometry relative="1" as="geometry" />
        </mxCell>
        <mxCell id="gr5bcSjQBXBdmszoCTGf-52" value="" style="whiteSpace=wrap;html=1;aspect=fixed;strokeWidth=4;" vertex="1" parent="WIyWlLk6GJQsqaUBKTNV-1">
          <mxGeometry x="121" y="200" width="40" height="40" as="geometry" />
        </mxCell>
        <mxCell id="gr5bcSjQBXBdmszoCTGf-183" style="edgeStyle=orthogonalEdgeStyle;rounded=0;orthogonalLoop=1;jettySize=auto;html=1;entryX=0.5;entryY=1;entryDx=0;entryDy=0;endArrow=none;endFill=0;" edge="1" parent="WIyWlLk6GJQsqaUBKTNV-1" source="gr5bcSjQBXBdmszoCTGf-56" target="gr5bcSjQBXBdmszoCTGf-60">
          <mxGeometry relative="1" as="geometry" />
        </mxCell>
        <mxCell id="gr5bcSjQBXBdmszoCTGf-56" value="" style="whiteSpace=wrap;html=1;aspect=fixed;strokeWidth=4;" vertex="1" parent="WIyWlLk6GJQsqaUBKTNV-1">
          <mxGeometry x="320" y="361" width="40" height="40" as="geometry" />
        </mxCell>
        <mxCell id="gr5bcSjQBXBdmszoCTGf-184" style="edgeStyle=orthogonalEdgeStyle;rounded=0;orthogonalLoop=1;jettySize=auto;html=1;entryX=0.5;entryY=1;entryDx=0;entryDy=0;endArrow=none;endFill=0;" edge="1" parent="WIyWlLk6GJQsqaUBKTNV-1" source="gr5bcSjQBXBdmszoCTGf-57" target="gr5bcSjQBXBdmszoCTGf-61">
          <mxGeometry relative="1" as="geometry" />
        </mxCell>
        <mxCell id="gr5bcSjQBXBdmszoCTGf-57" value="" style="whiteSpace=wrap;html=1;aspect=fixed;strokeWidth=4;" vertex="1" parent="WIyWlLk6GJQsqaUBKTNV-1">
          <mxGeometry x="360" y="361" width="40" height="40" as="geometry" />
        </mxCell>
        <mxCell id="gr5bcSjQBXBdmszoCTGf-185" style="edgeStyle=orthogonalEdgeStyle;rounded=0;orthogonalLoop=1;jettySize=auto;html=1;entryX=0.5;entryY=1;entryDx=0;entryDy=0;endArrow=none;endFill=0;" edge="1" parent="WIyWlLk6GJQsqaUBKTNV-1" source="gr5bcSjQBXBdmszoCTGf-58" target="gr5bcSjQBXBdmszoCTGf-62">
          <mxGeometry relative="1" as="geometry" />
        </mxCell>
        <mxCell id="gr5bcSjQBXBdmszoCTGf-58" value="" style="whiteSpace=wrap;html=1;aspect=fixed;strokeWidth=4;" vertex="1" parent="WIyWlLk6GJQsqaUBKTNV-1">
          <mxGeometry x="400" y="361" width="40" height="40" as="geometry" />
        </mxCell>
        <mxCell id="gr5bcSjQBXBdmszoCTGf-186" style="edgeStyle=orthogonalEdgeStyle;rounded=0;orthogonalLoop=1;jettySize=auto;html=1;entryX=0.5;entryY=1;entryDx=0;entryDy=0;endArrow=none;endFill=0;" edge="1" parent="WIyWlLk6GJQsqaUBKTNV-1" source="gr5bcSjQBXBdmszoCTGf-59" target="gr5bcSjQBXBdmszoCTGf-63">
          <mxGeometry relative="1" as="geometry" />
        </mxCell>
        <mxCell id="gr5bcSjQBXBdmszoCTGf-59" value="" style="whiteSpace=wrap;html=1;aspect=fixed;strokeWidth=4;" vertex="1" parent="WIyWlLk6GJQsqaUBKTNV-1">
          <mxGeometry x="440" y="361" width="40" height="40" as="geometry" />
        </mxCell>
        <mxCell id="gr5bcSjQBXBdmszoCTGf-60" value="" style="whiteSpace=wrap;html=1;aspect=fixed;strokeWidth=4;" vertex="1" parent="WIyWlLk6GJQsqaUBKTNV-1">
          <mxGeometry x="320" y="281" width="40" height="40" as="geometry" />
        </mxCell>
        <mxCell id="gr5bcSjQBXBdmszoCTGf-61" value="" style="whiteSpace=wrap;html=1;aspect=fixed;strokeWidth=4;" vertex="1" parent="WIyWlLk6GJQsqaUBKTNV-1">
          <mxGeometry x="360" y="281" width="40" height="40" as="geometry" />
        </mxCell>
        <mxCell id="gr5bcSjQBXBdmszoCTGf-73" style="edgeStyle=orthogonalEdgeStyle;rounded=0;orthogonalLoop=1;jettySize=auto;html=1;entryX=0.5;entryY=1;entryDx=0;entryDy=0;strokeWidth=4;" edge="1" parent="WIyWlLk6GJQsqaUBKTNV-1" target="gr5bcSjQBXBdmszoCTGf-72">
          <mxGeometry relative="1" as="geometry">
            <mxPoint x="400" y="280" as="sourcePoint" />
          </mxGeometry>
        </mxCell>
        <mxCell id="gr5bcSjQBXBdmszoCTGf-62" value="" style="whiteSpace=wrap;html=1;aspect=fixed;strokeWidth=4;" vertex="1" parent="WIyWlLk6GJQsqaUBKTNV-1">
          <mxGeometry x="400" y="281" width="40" height="40" as="geometry" />
        </mxCell>
        <mxCell id="gr5bcSjQBXBdmszoCTGf-63" value="" style="whiteSpace=wrap;html=1;aspect=fixed;strokeWidth=4;" vertex="1" parent="WIyWlLk6GJQsqaUBKTNV-1">
          <mxGeometry x="440" y="281" width="40" height="40" as="geometry" />
        </mxCell>
        <mxCell id="gr5bcSjQBXBdmszoCTGf-64" value="W" style="text;html=1;align=center;verticalAlign=middle;whiteSpace=wrap;rounded=0;fontStyle=2;fontFamily=Times New Roman;fontSize=41;" vertex="1" parent="WIyWlLk6GJQsqaUBKTNV-1">
          <mxGeometry x="495" y="291" width="60" height="30" as="geometry" />
        </mxCell>
        <mxCell id="gr5bcSjQBXBdmszoCTGf-65" value="x" style="text;html=1;align=center;verticalAlign=middle;whiteSpace=wrap;rounded=0;fontStyle=2;fontFamily=Times New Roman;fontSize=20;" vertex="1" parent="WIyWlLk6GJQsqaUBKTNV-1">
          <mxGeometry x="505" y="311" width="60" height="30" as="geometry" />
        </mxCell>
        <mxCell id="gr5bcSjQBXBdmszoCTGf-66" value="" style="whiteSpace=wrap;html=1;aspect=fixed;strokeWidth=4;" vertex="1" parent="WIyWlLk6GJQsqaUBKTNV-1">
          <mxGeometry x="321" y="-2" width="40" height="40" as="geometry" />
        </mxCell>
        <mxCell id="gr5bcSjQBXBdmszoCTGf-67" value="" style="whiteSpace=wrap;html=1;aspect=fixed;strokeWidth=4;" vertex="1" parent="WIyWlLk6GJQsqaUBKTNV-1">
          <mxGeometry x="361" y="-2" width="40" height="40" as="geometry" />
        </mxCell>
        <mxCell id="gr5bcSjQBXBdmszoCTGf-78" style="edgeStyle=orthogonalEdgeStyle;rounded=0;orthogonalLoop=1;jettySize=auto;html=1;exitX=0;exitY=1;exitDx=0;exitDy=0;entryX=0.5;entryY=0;entryDx=0;entryDy=0;strokeWidth=4;" edge="1" parent="WIyWlLk6GJQsqaUBKTNV-1" source="gr5bcSjQBXBdmszoCTGf-68" target="gr5bcSjQBXBdmszoCTGf-72">
          <mxGeometry relative="1" as="geometry" />
        </mxCell>
        <mxCell id="gr5bcSjQBXBdmszoCTGf-68" value="" style="whiteSpace=wrap;html=1;aspect=fixed;strokeWidth=4;" vertex="1" parent="WIyWlLk6GJQsqaUBKTNV-1">
          <mxGeometry x="401" y="-2" width="40" height="40" as="geometry" />
        </mxCell>
        <mxCell id="gr5bcSjQBXBdmszoCTGf-69" value="" style="whiteSpace=wrap;html=1;aspect=fixed;strokeWidth=4;" vertex="1" parent="WIyWlLk6GJQsqaUBKTNV-1">
          <mxGeometry x="441" y="-2" width="40" height="40" as="geometry" />
        </mxCell>
        <mxCell id="gr5bcSjQBXBdmszoCTGf-70" value="b" style="text;html=1;align=center;verticalAlign=middle;whiteSpace=wrap;rounded=0;fontStyle=2;fontFamily=Times New Roman;fontSize=41;" vertex="1" parent="WIyWlLk6GJQsqaUBKTNV-1">
          <mxGeometry x="506" y="3" width="60" height="30" as="geometry" />
        </mxCell>
        <mxCell id="gr5bcSjQBXBdmszoCTGf-87" style="edgeStyle=orthogonalEdgeStyle;rounded=0;orthogonalLoop=1;jettySize=auto;html=1;exitX=1;exitY=0.5;exitDx=0;exitDy=0;strokeWidth=4;" edge="1" parent="WIyWlLk6GJQsqaUBKTNV-1" source="gr5bcSjQBXBdmszoCTGf-72">
          <mxGeometry relative="1" as="geometry">
            <mxPoint x="600" y="160" as="targetPoint" />
            <Array as="points">
              <mxPoint x="598" y="160" />
            </Array>
          </mxGeometry>
        </mxCell>
        <mxCell id="gr5bcSjQBXBdmszoCTGf-72" value="&lt;font style=&quot;font-size: 50px;&quot;&gt;+&lt;/font&gt;" style="ellipse;whiteSpace=wrap;html=1;aspect=fixed;strokeWidth=4;" vertex="1" parent="WIyWlLk6GJQsqaUBKTNV-1">
          <mxGeometry x="381" y="140" width="40" height="40" as="geometry" />
        </mxCell>
        <mxCell id="gr5bcSjQBXBdmszoCTGf-82" value="" style="whiteSpace=wrap;html=1;aspect=fixed;strokeWidth=4;" vertex="1" parent="WIyWlLk6GJQsqaUBKTNV-1">
          <mxGeometry x="598" y="80" width="40" height="40" as="geometry" />
        </mxCell>
        <mxCell id="gr5bcSjQBXBdmszoCTGf-83" value="" style="whiteSpace=wrap;html=1;aspect=fixed;strokeWidth=4;" vertex="1" parent="WIyWlLk6GJQsqaUBKTNV-1">
          <mxGeometry x="598" y="120" width="40" height="40" as="geometry" />
        </mxCell>
        <mxCell id="gr5bcSjQBXBdmszoCTGf-84" value="" style="whiteSpace=wrap;html=1;aspect=fixed;strokeWidth=4;" vertex="1" parent="WIyWlLk6GJQsqaUBKTNV-1">
          <mxGeometry x="598" y="158" width="40" height="40" as="geometry" />
        </mxCell>
        <mxCell id="gr5bcSjQBXBdmszoCTGf-85" value="" style="whiteSpace=wrap;html=1;aspect=fixed;strokeWidth=4;" vertex="1" parent="WIyWlLk6GJQsqaUBKTNV-1">
          <mxGeometry x="598" y="198" width="40" height="40" as="geometry" />
        </mxCell>
        <mxCell id="gr5bcSjQBXBdmszoCTGf-187" value="" style="whiteSpace=wrap;html=1;aspect=fixed;strokeWidth=4;" vertex="1" parent="WIyWlLk6GJQsqaUBKTNV-1">
          <mxGeometry x="200" y="82" width="40" height="40" as="geometry" />
        </mxCell>
        <mxCell id="gr5bcSjQBXBdmszoCTGf-188" value="" style="whiteSpace=wrap;html=1;aspect=fixed;strokeWidth=4;" vertex="1" parent="WIyWlLk6GJQsqaUBKTNV-1">
          <mxGeometry x="200" y="122" width="40" height="40" as="geometry" />
        </mxCell>
        <mxCell id="gr5bcSjQBXBdmszoCTGf-189" value="" style="whiteSpace=wrap;html=1;aspect=fixed;strokeWidth=4;" vertex="1" parent="WIyWlLk6GJQsqaUBKTNV-1">
          <mxGeometry x="200" y="160" width="40" height="40" as="geometry" />
        </mxCell>
        <mxCell id="gr5bcSjQBXBdmszoCTGf-190" value="" style="whiteSpace=wrap;html=1;aspect=fixed;strokeWidth=4;" vertex="1" parent="WIyWlLk6GJQsqaUBKTNV-1">
          <mxGeometry x="200" y="200" width="40" height="40" as="geometry" />
        </mxCell>
      </root>
    </mxGraphModel>
  </diagram>
</mxfile>
